<mxfile host="app.diagrams.net" modified="2024-05-05T16:50:19.935Z" agent="Mozilla/5.0 (Windows NT 10.0; Win64; x64) AppleWebKit/537.36 (KHTML, like Gecko) Chrome/124.0.0.0 Safari/537.36" etag="fV-PZIK3p2wWPukxVGTF" version="24.3.1" type="device">
  <diagram name="Trang-1" id="cWSqV1vZ6C-E1ESMk3x9">
    <mxGraphModel dx="794" dy="412" grid="1" gridSize="10" guides="1" tooltips="1" connect="1" arrows="1" fold="1" page="1" pageScale="1" pageWidth="827" pageHeight="1169" math="0" shadow="0">
      <root>
        <mxCell id="0" />
        <mxCell id="1" parent="0" />
        <mxCell id="8clmqegmWN9Waha5ezIj-1" value="Xem điểm" style="ellipse;whiteSpace=wrap;html=1;" vertex="1" parent="1">
          <mxGeometry x="260" y="20" width="166" height="60" as="geometry" />
        </mxCell>
        <mxCell id="8clmqegmWN9Waha5ezIj-2" value="Sinh viên" style="shape=umlActor;verticalLabelPosition=bottom;verticalAlign=top;html=1;outlineConnect=0;" vertex="1" parent="1">
          <mxGeometry x="730" y="70" width="30" height="60" as="geometry" />
        </mxCell>
        <mxCell id="8clmqegmWN9Waha5ezIj-3" value="Admin" style="shape=umlActor;verticalLabelPosition=bottom;verticalAlign=top;html=1;outlineConnect=0;" vertex="1" parent="1">
          <mxGeometry x="730" y="420" width="30" height="60" as="geometry" />
        </mxCell>
        <mxCell id="8clmqegmWN9Waha5ezIj-8" value="Giảng viên" style="shape=umlActor;verticalLabelPosition=bottom;verticalAlign=top;html=1;outlineConnect=0;" vertex="1" parent="1">
          <mxGeometry x="50" y="220" width="30" height="60" as="geometry" />
        </mxCell>
        <mxCell id="8clmqegmWN9Waha5ezIj-9" value="Quản lí thông tin cá nhân" style="ellipse;whiteSpace=wrap;html=1;" vertex="1" parent="1">
          <mxGeometry x="390" y="130" width="166" height="60" as="geometry" />
        </mxCell>
        <mxCell id="8clmqegmWN9Waha5ezIj-12" value="" style="endArrow=none;html=1;rounded=0;entryX=1;entryY=0.5;entryDx=0;entryDy=0;" edge="1" parent="1" source="8clmqegmWN9Waha5ezIj-2" target="8clmqegmWN9Waha5ezIj-1">
          <mxGeometry width="50" height="50" relative="1" as="geometry">
            <mxPoint x="380" y="240" as="sourcePoint" />
            <mxPoint x="430" y="190" as="targetPoint" />
          </mxGeometry>
        </mxCell>
        <mxCell id="8clmqegmWN9Waha5ezIj-13" value="" style="endArrow=none;html=1;rounded=0;entryX=1;entryY=0.5;entryDx=0;entryDy=0;" edge="1" parent="1" target="8clmqegmWN9Waha5ezIj-9">
          <mxGeometry width="50" height="50" relative="1" as="geometry">
            <mxPoint x="730" y="100" as="sourcePoint" />
            <mxPoint x="430" y="190" as="targetPoint" />
          </mxGeometry>
        </mxCell>
        <mxCell id="8clmqegmWN9Waha5ezIj-14" value="" style="endArrow=none;html=1;rounded=0;entryX=0;entryY=0.5;entryDx=0;entryDy=0;" edge="1" parent="1" source="8clmqegmWN9Waha5ezIj-8" target="8clmqegmWN9Waha5ezIj-9">
          <mxGeometry width="50" height="50" relative="1" as="geometry">
            <mxPoint x="380" y="240" as="sourcePoint" />
            <mxPoint x="430" y="190" as="targetPoint" />
          </mxGeometry>
        </mxCell>
        <mxCell id="8clmqegmWN9Waha5ezIj-15" value="" style="endArrow=none;html=1;rounded=0;entryX=-0.004;entryY=0.633;entryDx=0;entryDy=0;entryPerimeter=0;" edge="1" parent="1" target="8clmqegmWN9Waha5ezIj-1">
          <mxGeometry width="50" height="50" relative="1" as="geometry">
            <mxPoint x="80" y="240" as="sourcePoint" />
            <mxPoint x="430" y="190" as="targetPoint" />
          </mxGeometry>
        </mxCell>
        <mxCell id="8clmqegmWN9Waha5ezIj-16" value="Đăng nhập" style="ellipse;whiteSpace=wrap;html=1;" vertex="1" parent="1">
          <mxGeometry x="340" y="250" width="170" height="80" as="geometry" />
        </mxCell>
        <mxCell id="8clmqegmWN9Waha5ezIj-17" value="&amp;lt;include&amp;gt;" style="endArrow=open;endSize=12;dashed=1;html=1;rounded=0;exitX=0.5;exitY=1;exitDx=0;exitDy=0;entryX=0.216;entryY=0.1;entryDx=0;entryDy=0;entryPerimeter=0;" edge="1" parent="1" source="8clmqegmWN9Waha5ezIj-1" target="8clmqegmWN9Waha5ezIj-16">
          <mxGeometry width="160" relative="1" as="geometry">
            <mxPoint x="330" y="210" as="sourcePoint" />
            <mxPoint x="490" y="210" as="targetPoint" />
            <Array as="points" />
          </mxGeometry>
        </mxCell>
        <mxCell id="8clmqegmWN9Waha5ezIj-18" value="&amp;lt;include&amp;gt;" style="endArrow=open;endSize=12;dashed=1;html=1;rounded=0;entryX=0.557;entryY=-0.042;entryDx=0;entryDy=0;entryPerimeter=0;exitX=0.454;exitY=1.067;exitDx=0;exitDy=0;exitPerimeter=0;" edge="1" parent="1" source="8clmqegmWN9Waha5ezIj-9" target="8clmqegmWN9Waha5ezIj-16">
          <mxGeometry width="160" relative="1" as="geometry">
            <mxPoint x="502.102" y="190.00000000000003" as="sourcePoint" />
            <mxPoint x="413.9999999999999" y="342.65999999999997" as="targetPoint" />
          </mxGeometry>
        </mxCell>
        <mxCell id="8clmqegmWN9Waha5ezIj-19" value="" style="endArrow=none;html=1;rounded=0;entryX=0;entryY=0.5;entryDx=0;entryDy=0;" edge="1" parent="1" source="8clmqegmWN9Waha5ezIj-8" target="8clmqegmWN9Waha5ezIj-16">
          <mxGeometry width="50" height="50" relative="1" as="geometry">
            <mxPoint x="380" y="240" as="sourcePoint" />
            <mxPoint x="330" y="370" as="targetPoint" />
          </mxGeometry>
        </mxCell>
        <mxCell id="8clmqegmWN9Waha5ezIj-21" value="" style="endArrow=none;html=1;rounded=0;exitX=1;exitY=0.5;exitDx=0;exitDy=0;" edge="1" parent="1" source="8clmqegmWN9Waha5ezIj-16">
          <mxGeometry width="50" height="50" relative="1" as="geometry">
            <mxPoint x="380" y="340" as="sourcePoint" />
            <mxPoint x="730" y="110" as="targetPoint" />
          </mxGeometry>
        </mxCell>
        <mxCell id="8clmqegmWN9Waha5ezIj-22" value="" style="endArrow=none;html=1;rounded=0;entryX=0.5;entryY=1;entryDx=0;entryDy=0;" edge="1" parent="1" source="8clmqegmWN9Waha5ezIj-3" target="8clmqegmWN9Waha5ezIj-16">
          <mxGeometry width="50" height="50" relative="1" as="geometry">
            <mxPoint x="380" y="440" as="sourcePoint" />
            <mxPoint x="430" y="390" as="targetPoint" />
          </mxGeometry>
        </mxCell>
        <mxCell id="8clmqegmWN9Waha5ezIj-24" value="Quản lí tài khoản" style="ellipse;whiteSpace=wrap;html=1;" vertex="1" parent="1">
          <mxGeometry x="510" y="660" width="170" height="80" as="geometry" />
        </mxCell>
        <mxCell id="8clmqegmWN9Waha5ezIj-25" value="" style="endArrow=none;html=1;rounded=0;exitX=1;exitY=0.375;exitDx=0;exitDy=0;exitPerimeter=0;" edge="1" parent="1" source="8clmqegmWN9Waha5ezIj-24">
          <mxGeometry width="50" height="50" relative="1" as="geometry">
            <mxPoint x="380" y="540" as="sourcePoint" />
            <mxPoint x="730" y="450" as="targetPoint" />
          </mxGeometry>
        </mxCell>
        <mxCell id="8clmqegmWN9Waha5ezIj-26" value="Thêm, sửa, xóa" style="ellipse;whiteSpace=wrap;html=1;" vertex="1" parent="1">
          <mxGeometry x="406" y="570" width="134" height="65" as="geometry" />
        </mxCell>
        <mxCell id="8clmqegmWN9Waha5ezIj-27" value="Lấy lại mật khẩu" style="ellipse;whiteSpace=wrap;html=1;" vertex="1" parent="1">
          <mxGeometry x="550" y="540" width="150" height="70" as="geometry" />
        </mxCell>
        <mxCell id="8clmqegmWN9Waha5ezIj-28" value="&amp;lt;include&amp;gt;" style="endArrow=open;endSize=12;dashed=1;html=1;rounded=0;entryX=0.5;entryY=1;entryDx=0;entryDy=0;" edge="1" parent="1" source="8clmqegmWN9Waha5ezIj-24" target="8clmqegmWN9Waha5ezIj-27">
          <mxGeometry width="160" relative="1" as="geometry">
            <mxPoint x="330" y="510" as="sourcePoint" />
            <mxPoint x="490" y="510" as="targetPoint" />
          </mxGeometry>
        </mxCell>
        <mxCell id="8clmqegmWN9Waha5ezIj-30" value="&amp;lt;include&amp;gt;" style="endArrow=open;endSize=12;dashed=1;html=1;rounded=0;entryX=0.5;entryY=1;entryDx=0;entryDy=0;" edge="1" parent="1" source="8clmqegmWN9Waha5ezIj-24" target="8clmqegmWN9Waha5ezIj-26">
          <mxGeometry width="160" relative="1" as="geometry">
            <mxPoint x="330" y="510" as="sourcePoint" />
            <mxPoint x="490" y="510" as="targetPoint" />
          </mxGeometry>
        </mxCell>
        <mxCell id="8clmqegmWN9Waha5ezIj-31" value="&amp;lt;include&amp;gt;" style="endArrow=open;endSize=12;dashed=1;html=1;rounded=0;exitX=0.5;exitY=0;exitDx=0;exitDy=0;entryX=0.329;entryY=1;entryDx=0;entryDy=0;entryPerimeter=0;" edge="1" parent="1" source="8clmqegmWN9Waha5ezIj-26" target="8clmqegmWN9Waha5ezIj-16">
          <mxGeometry width="160" relative="1" as="geometry">
            <mxPoint x="330" y="510" as="sourcePoint" />
            <mxPoint x="490" y="510" as="targetPoint" />
          </mxGeometry>
        </mxCell>
        <mxCell id="8clmqegmWN9Waha5ezIj-32" value="&amp;lt;include&amp;gt;" style="endArrow=open;endSize=12;dashed=1;html=1;rounded=0;exitX=0.458;exitY=-0.029;exitDx=0;exitDy=0;exitPerimeter=0;entryX=0.369;entryY=1.033;entryDx=0;entryDy=0;entryPerimeter=0;" edge="1" parent="1" source="8clmqegmWN9Waha5ezIj-27" target="8clmqegmWN9Waha5ezIj-16">
          <mxGeometry width="160" relative="1" as="geometry">
            <mxPoint x="330" y="510" as="sourcePoint" />
            <mxPoint x="490" y="510" as="targetPoint" />
          </mxGeometry>
        </mxCell>
        <mxCell id="8clmqegmWN9Waha5ezIj-33" value="Quản lí điểm" style="ellipse;whiteSpace=wrap;html=1;" vertex="1" parent="1">
          <mxGeometry x="160" y="500" width="120" height="80" as="geometry" />
        </mxCell>
        <mxCell id="8clmqegmWN9Waha5ezIj-34" value="" style="endArrow=none;html=1;rounded=0;exitX=1;exitY=0.5;exitDx=0;exitDy=0;" edge="1" parent="1" source="8clmqegmWN9Waha5ezIj-33">
          <mxGeometry width="50" height="50" relative="1" as="geometry">
            <mxPoint x="380" y="440" as="sourcePoint" />
            <mxPoint x="730" y="450" as="targetPoint" />
          </mxGeometry>
        </mxCell>
        <mxCell id="8clmqegmWN9Waha5ezIj-35" value="" style="endArrow=none;html=1;rounded=0;exitX=0;exitY=0.5;exitDx=0;exitDy=0;" edge="1" parent="1" source="8clmqegmWN9Waha5ezIj-33" target="8clmqegmWN9Waha5ezIj-8">
          <mxGeometry width="50" height="50" relative="1" as="geometry">
            <mxPoint x="380" y="440" as="sourcePoint" />
            <mxPoint x="430" y="390" as="targetPoint" />
          </mxGeometry>
        </mxCell>
        <mxCell id="8clmqegmWN9Waha5ezIj-36" value="Thêm, sửa, xóa, nhập từ excel, xuất ra excel" style="ellipse;whiteSpace=wrap;html=1;" vertex="1" parent="1">
          <mxGeometry x="120" y="320" width="140" height="80" as="geometry" />
        </mxCell>
        <mxCell id="8clmqegmWN9Waha5ezIj-37" value="Lọc, tìm kiếm" style="ellipse;whiteSpace=wrap;html=1;" vertex="1" parent="1">
          <mxGeometry x="260" y="380" width="120" height="80" as="geometry" />
        </mxCell>
        <mxCell id="8clmqegmWN9Waha5ezIj-39" value="&amp;lt;include&amp;gt;" style="endArrow=open;endSize=12;dashed=1;html=1;rounded=0;exitX=0.6;exitY=-0.033;exitDx=0;exitDy=0;exitPerimeter=0;entryX=0.144;entryY=0.942;entryDx=0;entryDy=0;entryPerimeter=0;" edge="1" parent="1" source="8clmqegmWN9Waha5ezIj-33" target="8clmqegmWN9Waha5ezIj-37">
          <mxGeometry width="160" relative="1" as="geometry">
            <mxPoint x="330" y="410" as="sourcePoint" />
            <mxPoint x="490" y="410" as="targetPoint" />
          </mxGeometry>
        </mxCell>
        <mxCell id="8clmqegmWN9Waha5ezIj-40" value="&amp;lt;include&amp;gt;" style="endArrow=open;endSize=12;dashed=1;html=1;rounded=0;exitX=0.5;exitY=0;exitDx=0;exitDy=0;entryX=0.381;entryY=1.025;entryDx=0;entryDy=0;entryPerimeter=0;" edge="1" parent="1" source="8clmqegmWN9Waha5ezIj-33" target="8clmqegmWN9Waha5ezIj-36">
          <mxGeometry width="160" relative="1" as="geometry">
            <mxPoint x="330" y="410" as="sourcePoint" />
            <mxPoint x="490" y="410" as="targetPoint" />
          </mxGeometry>
        </mxCell>
        <mxCell id="8clmqegmWN9Waha5ezIj-41" value="&amp;lt;include&amp;gt;" style="endArrow=open;endSize=12;dashed=1;html=1;rounded=0;exitX=0.967;exitY=0.35;exitDx=0;exitDy=0;exitPerimeter=0;" edge="1" parent="1" source="8clmqegmWN9Waha5ezIj-36" target="8clmqegmWN9Waha5ezIj-16">
          <mxGeometry width="160" relative="1" as="geometry">
            <mxPoint x="330" y="410" as="sourcePoint" />
            <mxPoint x="490" y="410" as="targetPoint" />
          </mxGeometry>
        </mxCell>
        <mxCell id="8clmqegmWN9Waha5ezIj-42" value="&amp;lt;include&amp;gt;" style="endArrow=open;endSize=12;dashed=1;html=1;rounded=0;exitX=0.761;exitY=0.1;exitDx=0;exitDy=0;exitPerimeter=0;entryX=0.2;entryY=0.925;entryDx=0;entryDy=0;entryPerimeter=0;" edge="1" parent="1" source="8clmqegmWN9Waha5ezIj-37" target="8clmqegmWN9Waha5ezIj-16">
          <mxGeometry width="160" relative="1" as="geometry">
            <mxPoint x="330" y="410" as="sourcePoint" />
            <mxPoint x="490" y="410" as="targetPoint" />
          </mxGeometry>
        </mxCell>
        <mxCell id="8clmqegmWN9Waha5ezIj-43" value="Quản lí thông tin&lt;span style=&quot;background-color: initial;&quot;&gt;&amp;nbsp;sinh viên, giảng viên&lt;/span&gt;" style="ellipse;whiteSpace=wrap;html=1;" vertex="1" parent="1">
          <mxGeometry x="590" y="240" width="150" height="80" as="geometry" />
        </mxCell>
        <mxCell id="8clmqegmWN9Waha5ezIj-45" value="" style="endArrow=none;html=1;rounded=0;entryX=0.676;entryY=1.033;entryDx=0;entryDy=0;entryPerimeter=0;exitX=0;exitY=0.3333333333333333;exitDx=0;exitDy=0;exitPerimeter=0;" edge="1" parent="1" source="8clmqegmWN9Waha5ezIj-3" target="8clmqegmWN9Waha5ezIj-43">
          <mxGeometry width="50" height="50" relative="1" as="geometry">
            <mxPoint x="380" y="340" as="sourcePoint" />
            <mxPoint x="430" y="290" as="targetPoint" />
          </mxGeometry>
        </mxCell>
        <mxCell id="8clmqegmWN9Waha5ezIj-46" value="&amp;lt;include&amp;gt;" style="endArrow=open;endSize=12;dashed=1;html=1;rounded=0;entryX=1;entryY=0.65;entryDx=0;entryDy=0;entryPerimeter=0;exitX=-0.018;exitY=0.65;exitDx=0;exitDy=0;exitPerimeter=0;" edge="1" parent="1" source="8clmqegmWN9Waha5ezIj-43" target="8clmqegmWN9Waha5ezIj-16">
          <mxGeometry width="160" relative="1" as="geometry">
            <mxPoint x="330" y="310" as="sourcePoint" />
            <mxPoint x="490" y="310" as="targetPoint" />
          </mxGeometry>
        </mxCell>
        <mxCell id="8clmqegmWN9Waha5ezIj-47" value="Báo cáo thống kê" style="ellipse;whiteSpace=wrap;html=1;" vertex="1" parent="1">
          <mxGeometry x="50" y="610" width="140" height="80" as="geometry" />
        </mxCell>
        <mxCell id="8clmqegmWN9Waha5ezIj-48" value="" style="endArrow=none;html=1;rounded=0;exitX=1;exitY=0.417;exitDx=0;exitDy=0;exitPerimeter=0;" edge="1" parent="1" source="8clmqegmWN9Waha5ezIj-47">
          <mxGeometry width="50" height="50" relative="1" as="geometry">
            <mxPoint x="380" y="640" as="sourcePoint" />
            <mxPoint x="730" y="450" as="targetPoint" />
          </mxGeometry>
        </mxCell>
        <mxCell id="8clmqegmWN9Waha5ezIj-49" value="" style="endArrow=none;html=1;rounded=0;exitX=0.5;exitY=0;exitDx=0;exitDy=0;" edge="1" parent="1" source="8clmqegmWN9Waha5ezIj-47" target="8clmqegmWN9Waha5ezIj-8">
          <mxGeometry width="50" height="50" relative="1" as="geometry">
            <mxPoint x="380" y="640" as="sourcePoint" />
            <mxPoint x="430" y="590" as="targetPoint" />
          </mxGeometry>
        </mxCell>
        <mxCell id="8clmqegmWN9Waha5ezIj-50" value="&amp;lt;include&amp;gt;" style="endArrow=open;endSize=12;dashed=1;html=1;rounded=0;exitX=0.933;exitY=0.225;exitDx=0;exitDy=0;exitPerimeter=0;" edge="1" parent="1" source="8clmqegmWN9Waha5ezIj-47">
          <mxGeometry width="160" relative="1" as="geometry">
            <mxPoint x="330" y="510" as="sourcePoint" />
            <mxPoint x="390" y="330" as="targetPoint" />
            <Array as="points">
              <mxPoint x="380" y="540" />
            </Array>
          </mxGeometry>
        </mxCell>
      </root>
    </mxGraphModel>
  </diagram>
</mxfile>
